<svg width="36" height="40" viewBox="0 0 36 40" fill="none" xmlns="http://www.w3.org/2000/svg">
<path d="M15.5511 0.644085C17.0385 -0.214695 18.8711 -0.214695 20.3586 0.644085L33.5059 8.23468C34.9933 9.09346 35.9096 10.6805 35.9096 12.3981V27.5793C35.9096 29.2969 34.9933 30.8839 33.5059 31.7427L20.3586 39.3333C18.8711 40.1921 17.0385 40.1921 15.5511 39.3333L2.40376 31.7427C0.916308 30.8839 0 29.2969 0 27.5793V12.3981C0 10.6805 0.916308 9.09346 2.40376 8.23468L15.5511 0.644085Z" fill="#397F86"/>
<path fill-rule="evenodd" clip-rule="evenodd" d="M32.5577 9.92266L19.4104 2.33207C18.5179 1.8168 17.4183 1.8168 16.5259 2.33207L3.37857 9.92266C2.4861 10.4379 1.93631 11.3902 1.93631 12.4207V27.6019C1.93631 28.6324 2.4861 29.5847 3.37857 30.1L16.5259 37.6906C17.4183 38.2058 18.5179 38.2058 19.4104 37.6906L32.5577 30.1C33.4501 29.5847 33.9999 28.6324 33.9999 27.6019V12.4207C33.9999 11.3902 33.4501 10.4379 32.5577 9.92266ZM20.3719 0.666699C18.8844 -0.192082 17.0518 -0.192082 15.5644 0.666699L2.41707 8.25729C0.929614 9.11607 0.0133057 10.7032 0.0133057 12.4207V27.6019C0.0133057 29.3195 0.929613 30.9066 2.41707 31.7653L15.5644 39.3559C17.0518 40.2147 18.8844 40.2147 20.3719 39.3559L33.5192 31.7653C35.0066 30.9066 35.9229 29.3195 35.9229 27.6019V12.4207C35.9229 10.7032 35.0066 9.11607 33.5192 8.25729L20.3719 0.666699Z" fill="#FBF5F3"/>
<path d="M10.2693 35.1847C9.98457 35.1847 9.74484 35.0873 9.55005 34.8925C9.35527 34.6977 9.25787 34.458 9.25787 34.1733V20.7556C9.25787 20.3511 9.40022 20.0064 9.6849 19.7218C9.96959 19.4221 10.3142 19.2722 10.7188 19.2722H11.4604C11.7601 19.2722 12.0298 19.3621 12.2695 19.5419C12.5243 19.7218 12.7116 19.9465 12.8314 20.2162L17.9333 32.9371L23.0351 20.2162C23.155 19.9465 23.3348 19.7218 23.5745 19.5419C23.8293 19.3621 24.1065 19.2722 24.4061 19.2722H25.1478C25.5524 19.2722 25.897 19.4221 26.1817 19.7218C26.4664 20.0064 26.6087 20.3511 26.6087 20.7556V34.1733C26.6087 34.458 26.5113 34.6977 26.3165 34.8925C26.1217 35.0873 25.882 35.1847 25.5973 35.1847C25.3126 35.1847 25.0654 35.0873 24.8556 34.8925C24.6608 34.6977 24.5635 34.458 24.5635 34.1733V21.4074L19.3717 34.2407C19.2518 34.5254 19.057 34.7576 18.7873 34.9374C18.5326 35.1022 18.2479 35.1847 17.9333 35.1847C17.6186 35.1847 17.3265 35.1022 17.0568 34.9374C16.802 34.7576 16.6147 34.5254 16.4949 34.2407L11.3031 21.4074V34.1733C11.3031 34.458 11.1982 34.6977 10.9885 34.8925C10.7937 35.0873 10.5539 35.1847 10.2693 35.1847Z" fill="#FBF5F3"/>
</svg>
